<svg width="24px" height="24px" viewBox="0 0 24 24" version="1.1" xmlns="http://www.w3.org/2000/svg">
    <g stroke="none" stroke-width="1" fill="none" fill-rule="evenodd"><g transform="translate(-10.000000, -10.000000)"><g transform="translate(10.000000, 10.000000)"><path d="M21.35,11.1 L12.18,11.1 L12.18,13.83 L18.69,13.83 C18.36,17.64 15.19,19.27 12.19,19.27 C8.36,19.27 5,16.25 5,12 C5,7.75 8.36,4.73 12.19,4.73 C14.03,4.73 15.6,5.33 16.84,6.46 L19.09,4.21 C17.2,2.38 14.86,1 12.19,1 C6.42,1 2.03,5.57 2.03,12 C2.03,18.43 6.42,23 12.19,23 C17.6,23 21.54,18.5 21.54,12.29 C21.54,11.85 21.48,11.47 21.35,11.1 L21.35,11.1 Z" fill="#FFFFFF"></path></g></g></g>
</svg>
